<?xml version="1.0" standalone="no"?>
<!DOCTYPE svg PUBLIC "-//W3C//DTD SVG 20010904//EN"
 "http://www.w3.org/TR/2001/REC-SVG-20010904/DTD/svg10.dtd">
<svg version="1.0" xmlns="http://www.w3.org/2000/svg"
 width="500.000000pt" height="500.000000pt" viewBox="0 0 500.000000 500.000000"
 preserveAspectRatio="xMidYMid meet">

<g transform="translate(0.000000,500.000000) scale(0.100000,-0.100000)"
fill="#000000" stroke="none">
<path d="M2420 4139 c-30 -5 -93 -28 -140 -51 -67 -32 -102 -59 -166 -123 -71
-71 -90 -97 -138 -196 -66 -135 -103 -267 -119 -429 l-11 -115 -68 -44 c-151
-96 -282 -214 -364 -328 -56 -77 -117 -208 -138 -296 -22 -88 -22 -261 -1
-341 61 -230 267 -385 536 -403 162 -11 358 36 547 131 l91 46 48 -21 c170
-74 369 -131 509 -144 84 -9 232 9 318 37 222 72 379 233 417 426 25 130 -10
308 -88 442 -52 89 -244 281 -354 353 l-85 56 -12 153 c-24 306 -106 506 -278
672 -141 138 -328 203 -504 175z m221 -33 c127 -39 252 -129 338 -243 47 -62
121 -190 121 -209 0 -4 -22 24 -49 62 -57 81 -154 177 -229 227 -54 37 -150
77 -180 76 -9 0 1 -6 23 -13 59 -19 113 -48 181 -100 48 -36 66 -58 87 -103
14 -32 29 -75 32 -95 8 -42 10 -44 31 -23 20 19 46 8 42 -19 -3 -24 -47 -36
-50 -14 -1 7 -4 -23 -7 -67 l-6 -80 -24 65 c-59 158 -121 251 -200 302 -107
68 -259 87 -368 46 -89 -33 -187 -135 -246 -258 -65 -136 -82 -221 -82 -410 1
-162 20 -283 65 -416 20 -59 21 -82 0 -45 -6 12 -21 21 -34 21 -33 0 -49 23
-41 59 5 22 -3 47 -33 108 -22 43 -48 104 -57 135 -29 91 -39 61 -32 -100 3
-79 4 -142 2 -140 -2 2 -11 44 -19 93 -72 405 22 793 241 995 67 62 173 122
254 144 69 19 181 20 240 2z m-34 -364 c103 -75 166 -200 179 -362 6 -73 5
-83 -8 -77 -70 26 -382 33 -512 11 l-38 -6 7 53 c11 83 33 158 65 226 28 62
96 145 134 165 56 30 123 26 173 -10z m548 -319 c5 -47 4 -46 -13 17 -31 110
-32 116 -12 73 11 -23 22 -63 25 -90z m-185 -210 c446 -164 727 -461 747 -788
13 -228 -82 -389 -291 -490 -117 -56 -188 -74 -323 -80 l-108 -4 79 14 c386
69 582 284 538 591 -33 225 -148 392 -404 584 -102 77 -260 167 -363 207 l-30
12 30 -6 c17 -3 73 -21 125 -40z m-1322 -249 c15 -70 1 -135 -38 -189 -142
-192 -181 -318 -146 -469 23 -97 72 -173 149 -228 90 -65 278 -87 428 -49 216
54 443 213 623 436 40 51 89 100 111 112 47 26 127 38 173 26 l32 -8 -46 -80
c-64 -112 -109 -168 -233 -288 -366 -353 -810 -482 -1125 -326 -200 100 -288
239 -288 459 0 127 25 229 82 345 54 107 91 155 51 64 -70 -157 -94 -365 -57
-493 22 -74 29 -70 9 4 -22 82 -12 241 22 350 29 92 79 198 128 270 32 48 97
120 108 120 3 0 11 -25 17 -56z m1013 -40 l37 -6 -54 -127 c-46 -108 -131
-257 -141 -247 -2 2 -35 45 -74 97 -68 91 -145 232 -135 248 3 4 38 13 78 20
40 7 78 15 83 16 18 6 169 5 206 -1z m574 -269 c122 -121 165 -229 130 -320
-23 -62 -75 -91 -185 -106 -96 -13 -206 -2 -316 32 -48 15 -63 23 -56 32 112
137 233 336 270 445 l11 33 33 -18 c18 -10 69 -54 113 -98z m-1240 -96 c14
-30 60 -105 101 -167 41 -62 74 -116 74 -121 0 -14 -152 -69 -221 -80 -94 -16
-142 -13 -203 10 -91 34 -126 101 -106 207 21 117 117 252 229 324 l45 28 27
-74 c15 -40 39 -98 54 -127z"/>
<path d="M2543 4023 c15 -2 39 -2 55 0 15 2 2 4 -28 4 -30 0 -43 -2 -27 -4z"/>
<path d="M1978 1538 c-49 -13 -116 -72 -139 -122 -70 -154 72 -328 245 -302
49 8 136 58 136 79 0 7 -11 24 -24 36 l-24 23 -30 -22 c-41 -31 -92 -40 -136
-25 -49 17 -73 40 -87 82 -41 125 98 224 211 149 l38 -25 27 29 27 28 -28 26
c-53 48 -136 65 -216 44z"/>
<path d="M2441 1533 c-52 -19 -115 -81 -132 -130 -32 -97 11 -208 100 -261 38
-22 58 -27 116 -27 93 0 152 33 195 108 104 181 -76 381 -279 310z m171 -100
c50 -45 62 -115 28 -170 -27 -45 -62 -65 -115 -65 -126 0 -181 150 -86 236 41
38 131 37 173 -1z"/>
<path d="M602 1393 c3 -120 7 -155 22 -186 48 -98 192 -126 282 -55 51 41 64
88 64 246 l0 142 -45 0 -45 0 0 -135 c0 -101 -4 -143 -15 -165 -26 -50 -101
-58 -144 -15 -25 25 -26 30 -29 170 l-3 145 -46 0 -45 0 4 -147z"/>
<path d="M1110 1330 l0 -210 45 0 44 0 3 125 3 125 98 -125 c96 -122 99 -125
138 -125 l39 0 0 210 0 210 -45 0 -44 0 -3 -127 -3 -128 -99 128 c-96 124
-100 127 -137 127 l-39 0 0 -210z"/>
<path d="M1620 1330 l0 -210 45 0 45 0 0 210 0 210 -45 0 -45 0 0 -210z"/>
<path d="M2860 1330 l0 -210 145 0 145 0 0 40 0 39 -97 3 -98 3 -3 168 -2 167
-45 0 -45 0 0 -210z"/>
<path d="M3240 1330 l0 -210 145 0 145 0 0 40 0 39 -97 3 -98 3 -3 168 -2 167
-45 0 -45 0 0 -210z"/>
<path d="M3657 1338 c-42 -112 -77 -206 -77 -210 0 -5 20 -8 44 -8 43 0 44 1
64 50 l21 50 80 0 79 0 17 -50 17 -50 48 0 48 0 -55 143 c-30 78 -66 172 -80
210 l-25 67 -52 0 -51 0 -78 -202z m168 -10 c7 -28 6 -28 -39 -28 -25 0 -46 3
-46 6 0 4 10 34 22 67 l22 61 17 -40 c10 -21 21 -51 24 -66z"/>
<path d="M4090 1330 l0 -210 110 0 c128 0 170 13 200 62 32 53 21 112 -27 143
l-24 16 27 31 c21 26 25 39 20 66 -12 76 -65 102 -206 102 l-100 0 0 -210z
m210 110 c8 -14 8 -26 0 -40 -9 -16 -21 -20 -65 -20 l-55 0 0 40 0 40 55 0
c44 0 56 -4 65 -20z m16 -165 c15 -23 15 -27 0 -50 -15 -22 -24 -25 -76 -25
l-60 0 0 50 0 50 60 0 c52 0 61 -3 76 -25z"/>
</g>
</svg>
